# This file uses centimeters as units for non-parametric coordinates.

mtllib mushroom.mtl
g default
v -0.500000 -0.004706 0.500000
v 0.500000 -0.004706 0.500000
v -0.500000 2.436533 0.500000
v 0.500000 2.436533 0.500000
v -0.500000 2.436533 -0.500000
v 0.500000 2.436533 -0.500000
v -0.500000 -0.004706 -0.500000
v 0.500000 -0.004706 -0.500000
v -0.500000 4.745646 0.500000
v 0.500000 4.745646 0.500000
v 0.500000 4.745646 -0.500000
v -0.500000 4.745646 -0.500000
v 1.649637 2.800405 1.626541
v -1.674978 2.800405 1.704796
v -1.674978 2.800405 -1.704796
v 1.674978 2.800405 -1.704796
v -0.700573 1.186634 0.725599
v -0.700573 1.186634 -0.725599
v 0.700573 1.186634 -0.725599
v 0.700573 1.186634 0.725599
v -1.325130 3.379597 1.346070
v -1.325130 3.379597 -1.346070
v 1.325130 3.379597 -1.346070
v 1.325130 3.379597 1.346070
v -0.918295 4.053135 0.928910
v -0.918295 4.053135 -0.928910
v 0.918295 4.053135 -0.928910
v 0.918295 4.053135 0.928910
v -0.596318 4.745646 -0.010248
v -1.095193 4.053135 0.007300
v -1.580399 3.379597 0.024368
v -1.997640 2.800405 0.039045
v -0.596318 2.436533 -0.010248
v -0.835529 1.186634 -0.001018
v -0.596318 -0.004706 -0.010248
v 0.596318 -0.004706 -0.010248
v 0.835529 1.186634 -0.001018
v 0.596318 2.436533 -0.010248
v 1.997640 2.800405 0.039045
v 1.580399 3.379597 0.024368
v 1.095193 4.053135 0.007300
v 0.596318 4.745646 -0.010248
v 0.021519 4.745646 0.582406
v 0.025665 4.745646 -0.006877
v 0.021519 4.745646 -0.582406
v 0.065660 4.053135 -1.082006
v 0.108591 3.379597 -1.567919
v 0.145509 2.800405 -1.985767
v 0.021519 2.436533 -0.582406
v 0.042685 1.186634 -0.845187
v 0.021519 -0.004706 -0.582406
v 0.025665 -0.004706 -0.006877
v 0.021519 -0.004706 0.582406
v 0.042685 1.186634 0.845187
v 0.021519 2.436533 0.582406
v 0.145509 2.800405 1.985767
v 0.108591 3.379597 1.567919
v 0.065660 4.053135 1.082006
vt 0.025910 0.702018
vt 0.080896 0.702018
vt 0.079901 0.830400
vt 0.001599 0.830400
vt 0.133673 0.702018
vt 0.157984 0.830400
vt 0.080896 0.965093
vt 0.025910 0.965093
vt 0.133673 0.965093
vt 0.241530 0.702018
vt 0.296516 0.702018
vt 0.320828 0.830400
vt 0.242525 0.830400
vt 0.296516 0.965093
vt 0.241530 0.965093
vt 0.188753 0.702018
vt 0.164442 0.830400
vt 0.188753 0.965093
vt 0.161709 0.271145
vt 0.152829 0.214945
vt 0.216332 0.214498
vt 0.216695 0.281525
vt 0.115489 0.316222
vt 0.098991 0.210188
vt 0.161709 0.163382
vt 0.216695 0.153003
vt 0.278353 0.214945
vt 0.269472 0.271145
vt 0.214804 0.335285
vt 0.070534 0.360064
vt 0.046627 0.205562
vt 0.115489 0.118305
vt 0.214804 0.099242
vt 0.269472 0.163382
vt 0.332191 0.210188
vt 0.315693 0.316222
vt 0.212965 0.387572
vt 0.031877 0.397764
vt 0.001599 0.201583
vt 0.070534 0.074464
vt 0.212965 0.046955
vt 0.315693 0.118305
vt 0.384555 0.205562
vt 0.360647 0.360064
vt 0.211383 0.432535
vt 0.040310 0.039494
vt 0.211383 0.001992
vt 0.360647 0.074464
vt 0.429583 0.201583
vt 0.399305 0.397764
vt 0.399305 0.036763
vt 0.388786 0.998008
vt 0.389150 0.930981
vt 0.452652 0.931428
vt 0.443772 0.987628
vt 0.336009 0.987628
vt 0.327129 0.931428
vt 0.388786 0.869486
vt 0.443772 0.879865
vt 0.336009 0.879865
vt 0.640925 0.704892
vt 0.649805 0.648692
vt 0.801035 0.635330
vt 0.770757 0.831511
vt 0.640925 0.597129
vt 0.762324 0.473241
vt 0.585939 0.715272
vt 0.591251 0.866282
vt 0.585939 0.586750
vt 0.591251 0.435739
vt 0.533162 0.704892
vt 0.403329 0.831511
vt 0.533162 0.597129
vt 0.403329 0.470510
vt 0.524281 0.648692
vt 0.373051 0.635330
vt 0.238749 0.435739
vt 0.294950 0.435739
vt 0.297231 0.564121
vt 0.217135 0.564121
vt 0.346512 0.435739
vt 0.368127 0.564121
vt 0.294950 0.698814
vt 0.238749 0.698814
vt 0.346512 0.698814
vt 0.061219 0.570432
vt 0.141315 0.570432
vt 0.139034 0.698814
vt 0.082833 0.698814
vt 0.082833 0.435739
vt 0.139034 0.435739
vt 0.212211 0.570432
vt 0.190596 0.698814
vt 0.190596 0.435739
vn -0.154207 -0.209525 0.965567
vn -0.001601 -0.214034 0.976825
vn 0.001602 0.000116 0.999999
vn -0.157708 0.000427 0.987486
vn 0.000000 1.000000 -0.000000
vn 0.000000 1.000000 0.000000
vn 0.000000 1.000000 0.000000
vn 0.000000 1.000000 0.000000
vn -0.157708 0.000427 -0.987486
vn 0.001602 0.000116 -0.999999
vn -0.001601 -0.214034 -0.976825
vn -0.154207 -0.209525 -0.965567
vn 0.000000 -1.000000 0.000000
vn 0.000000 -1.000000 0.000000
vn 0.000000 -1.000000 0.000000
vn 0.000000 -1.000000 0.000000
vn 0.963960 -0.195688 0.180246
vn 0.980118 -0.198414 -0.000943
vn 1.000000 0.000104 0.000903
vn 0.982964 0.000461 0.183799
vn -0.980118 -0.198414 -0.000943
vn -0.963960 -0.195688 0.180245
vn -0.982964 0.000461 0.183799
vn -1.000000 0.000104 0.000903
vn -0.090034 -0.816434 0.570377
vn 0.001543 -0.781774 0.623560
vn 0.015684 -0.557428 0.830077
vn -0.136554 -0.449515 0.882774
vn 0.591596 -0.797814 0.116224
vn 0.621758 -0.783209 -0.000015
vn 0.835660 -0.549220 0.005438
vn 0.874189 -0.450063 0.182311
vn -0.002322 -0.784596 -0.620003
vn -0.090034 -0.816434 -0.570377
vn -0.136554 -0.449515 -0.882774
vn 0.004982 -0.554414 -0.832226
vn -0.615551 -0.788096 -0.001274
vn -0.576775 -0.809584 0.109108
vn -0.869430 -0.464624 0.167978
vn -0.835109 -0.550079 0.002385
vn 0.005615 0.576394 0.817153
vn -0.125028 0.575554 0.808149
vn -0.800082 0.579639 0.154554
vn -0.811175 0.584804 -0.000125
vn -0.125028 0.575554 -0.808149
vn -0.000266 0.584800 -0.811178
vn 0.814455 0.580224 0.001794
vn 0.806588 0.568209 0.162953
vn -0.800311 0.579535 0.153759
vn -0.811088 0.584924 -0.000400
vn -0.125613 0.575620 -0.808012
vn -0.000812 0.584671 -0.811270
vn 0.811088 0.584924 -0.000400
vn 0.800311 0.579535 0.153759
vn -0.000812 0.584671 0.811270
vn -0.125613 0.575620 0.808012
vn -0.800597 0.579403 0.152764
vn -0.810999 0.585044 -0.002076
vn -0.126370 0.575705 -0.807834
vn -0.003808 0.584464 -0.811411
vn 0.810999 0.585044 -0.002076
vn 0.800597 0.579403 0.152764
vn -0.003808 0.584464 0.811411
vn -0.126370 0.575704 0.807834
vn -0.802867 0.576621 -0.151371
vn -0.802228 0.576892 -0.153708
vn -0.803355 0.576410 -0.149573
vn -0.877932 -0.450042 -0.163398
vn -0.569353 -0.814998 -0.107777
vn -0.982342 0.000458 -0.187091
vn -0.963579 -0.194518 -0.183518
vn 0.000000 -1.000000 0.000000
vn 0.000000 -1.000000 0.000000
vn 0.963579 -0.194518 -0.183518
vn 0.982342 0.000458 -0.187091
vn 0.569353 -0.814998 -0.107777
vn 0.877932 -0.450042 -0.163398
vn 0.803355 0.576410 -0.149573
vn 0.802867 0.576621 -0.151371
vn 0.802228 0.576892 -0.153708
vn 0.000000 1.000000 -0.000000
vn 0.000000 1.000000 0.000000
vn 0.000000 1.000000 0.000001
vn 0.000000 1.000000 0.000000
vn 0.000000 1.000000 -0.000001
vn 0.143813 0.583734 -0.799107
vn 0.141495 0.583400 -0.799765
vn 0.145693 0.584002 -0.798571
vn 0.157948 -0.475569 -0.865382
vn 0.102614 -0.812978 -0.573182
vn 0.175010 0.000419 -0.984567
vn 0.170991 -0.213086 -0.961955
vn 0.000000 -1.000000 0.000000
vn 0.000000 -1.000000 0.000000
vn 0.000000 -1.000000 0.000000
vn 0.170991 -0.213086 0.961955
vn 0.175010 0.000419 0.984567
vn 0.112968 -0.808344 0.577769
vn 0.182721 -0.501890 0.845411
vn 0.164090 0.560811 0.811520
vn 0.143813 0.583734 0.799107
vn 0.141495 0.583400 0.799765
s 1
g pCube1
usemtl initialShadingGroup
f 1/77/1 53/78/2 54/79/3 17/80/4
s 2
f 9/19/5 43/20/6 44/21/7 29/22/8
s 3
f 18/86/9 50/87/10 51/88/11 7/89/12
s 4
f 35/52/13 52/53/14 53/54/15 1/55/16
s 5
f 2/1/17 36/2/18 37/3/19 20/4/20
s 6
f 35/10/21 1/11/22 17/12/23 34/13/24
s 1
f 3/61/25 55/62/26 56/63/27 14/64/28
s 5
f 4/65/29 38/69/30 39/70/31 13/66/32
s 3
f 49/75/33 5/71/34 15/72/35 48/76/36
s 6
f 33/67/37 3/61/38 14/64/39 32/68/40
s 1
f 14/38/28 56/39/27 57/31/41 21/30/42
s 6
f 32/45/40 14/38/39 21/30/43 31/37/44
s 3
f 48/49/36 15/50/35 22/44/45 47/43/46
s 5
f 13/46/32 39/47/31 40/41/47 24/40/48
s 6
f 34/13/24 17/12/23 3/14/38 33/15/37
s 3
f 5/90/34 49/91/33 50/87/10 18/86/9
s 5
f 20/4/20 37/3/19 38/7/30 4/8/29
s 1
f 17/80/4 54/79/3 55/83/26 3/84/25
s 6
f 31/37/44 21/30/43 25/23/49 30/29/50
s 3
f 47/43/46 22/44/45 26/36/51 46/35/52
s 5
f 24/40/48 40/41/47 41/33/53 28/32/54
s 1
f 21/30/42 57/31/41 58/24/55 25/23/56
s 6
f 30/29/50 25/23/49 9/19/57 29/22/58
s 3
f 46/35/52 26/36/51 12/28/59 45/27/60
s 5
f 28/32/54 41/33/53 42/26/61 10/25/62
s 1
f 25/23/56 58/24/55 43/20/63 9/19/64
s 6
f 26/36/65 30/29/50 29/22/58 12/28/66
f 22/44/67 31/37/44 30/29/50 26/36/65
f 15/50/68 32/45/40 31/37/44 22/44/67
f 5/71/69 33/67/37 32/68/40 15/72/68
f 18/17/70 34/13/24 33/15/37 5/18/69
f 7/16/71 35/10/21 34/13/24 18/17/70
s 4
f 7/56/72 51/57/73 52/53/14 35/52/13
s 5
f 37/3/19 36/2/18 8/5/74 19/6/75
f 38/7/30 37/3/19 19/6/75 6/9/76
f 39/70/31 38/69/30 6/73/76 16/74/77
f 40/41/47 39/47/31 16/51/77 23/48/78
f 41/33/53 40/41/47 23/48/78 27/42/79
f 42/26/61 41/33/53 27/42/79 11/34/80
s 2
f 29/22/8 44/21/7 45/27/81 12/28/82
f 43/20/6 10/25/83 42/26/84 44/21/7
f 45/27/81 44/21/7 42/26/84 11/34/85
s 3
f 27/42/86 46/35/52 45/27/60 11/34/87
f 23/48/88 47/43/46 46/35/52 27/42/86
f 16/51/89 48/49/36 47/43/46 23/48/88
f 6/73/90 49/75/33 48/76/36 16/74/89
f 50/87/10 49/91/33 6/94/90 19/92/91
f 51/88/11 50/87/10 19/92/91 8/93/92
s 4
f 52/53/14 51/57/73 8/60/93 36/58/94
f 53/54/15 52/53/14 36/58/94 2/59/95
s 1
f 54/79/3 53/78/2 2/81/96 20/82/97
f 55/83/26 54/79/3 20/82/97 4/85/98
f 56/63/27 55/62/26 4/65/98 13/66/99
f 57/31/41 56/39/27 13/46/99 24/40/100
f 58/24/55 57/31/41 24/40/100 28/32/101
f 43/20/63 58/24/55 28/32/101 10/25/102
